<svg xmlns="http://www.w3.org/2000/svg" width="24" height="24" viewBox="0 0 24 24" fill="none">
  <path d="M6.39667 12L12.617 4.05234C12.7131 3.93047 12.6264 3.75 12.4693 3.75H10.6576C10.5428 3.75 10.4326 3.80391 10.3623 3.89297L4.3787 11.5383C4.27507 11.6703 4.21875 11.8333 4.21875 12.0012C4.21875 12.169 4.27507 12.332 4.3787 12.4641L10.3623 20.107C10.4326 20.1984 10.5428 20.25 10.6576 20.25H12.4693C12.6264 20.25 12.7131 20.0695 12.617 19.9477L6.39667 12ZM13.5217 12L19.742 4.05234C19.8381 3.93047 19.7514 3.75 19.5943 3.75H17.7826C17.6678 3.75 17.5576 3.80391 17.4873 3.89297L11.5037 11.5383C11.4001 11.6703 11.3438 11.8333 11.3438 12.0012C11.3438 12.169 11.4001 12.332 11.5037 12.4641L17.4873 20.107C17.5576 20.1984 17.6678 20.25 17.7826 20.25H19.5943C19.7514 20.25 19.8381 20.0695 19.742 19.9477L13.5217 12Z" fill="#4D6383"/>
</svg>