<svg xmlns="http://www.w3.org/2000/svg" width="24" height="24" viewBox="0 0 24 24" fill="currentColor">
  <path fill-rule="evenodd" clip-rule="evenodd" d="M18.0974 2.26627C17.7424 1.91124 17.1667 1.91124 16.8117 2.26627L14.0876 4.99042L14.0844 4.99354L14.0813 4.99667L3.17537 15.9026C3.04846 16.0295 2.96196 16.1912 2.92676 16.3672L2.01767 20.9126C1.95806 21.2107 2.05135 21.5188 2.26628 21.7337C2.48121 21.9487 2.78934 22.0419 3.08739 21.9823L7.63284 21.0732C7.80884 21.038 7.97047 20.9515 8.09738 20.8246L21.7337 7.18827C22.0888 6.83325 22.0888 6.25765 21.7337 5.90263L18.0974 2.26627ZM18.3636 7.98708L19.8053 6.54545L17.4545 4.19474L16.0129 5.63637L18.3636 7.98708ZM14.7273 6.92202L17.078 9.27273L7.00636 19.3443L4.06797 19.932L4.65565 16.9936L14.7273 6.92202Z" fill="black" fill-opacity="0.7" style="mix-blend-mode:multiply"/>
</svg>