<svg xmlns="http://www.w3.org/2000/svg" width="24" height="24" viewBox="0 0 24 24" fill="none">
  <path d="M18.8353 10.3344V8.6675C18.8353 6.89917 18.1329 5.20327 16.8825 3.95287C15.6321 2.70247 13.9361 2 12.1678 2C10.3995 2 8.70358 2.70247 7.45318 3.95287C6.20278 5.20327 5.50031 6.89917 5.50031 8.6675V10.3344C5.47985 10.8427 5.35479 11.3414 5.13295 11.7993C4.91111 12.2572 4.59726 12.6644 4.21099 12.9955C3.51689 13.587 3.08216 14.4268 3 15.335C3 17.4186 6.4271 18.6688 12.1678 18.6688C17.9085 18.6688 21.3356 17.4186 21.3356 15.335C21.2535 14.4268 20.8187 13.587 20.1246 12.9955C19.7384 12.6644 19.4245 12.2572 19.2027 11.7993C18.9808 11.3414 18.8558 10.8427 18.8353 10.3344Z" fill="#63391F" fill-opacity="0.7" style="mix-blend-mode:multiply"/>
  <path d="M9.78835 20.2523C9.9472 20.759 10.2637 21.2018 10.6916 21.5161C11.1196 21.8305 11.6368 22 12.1678 22C12.6988 22 13.216 21.8305 13.644 21.5161C14.072 21.2018 14.3884 20.759 14.5473 20.2523C13.8022 20.3073 13.0104 20.3356 12.1678 20.3356C11.3252 20.3356 10.5334 20.309 9.78835 20.2523Z" fill="#63391F" fill-opacity="0.7" style="mix-blend-mode:multiply"/>
</svg>