<svg xmlns="http://www.w3.org/2000/svg" width="24" height="24" viewBox="0 0 24 24" fill="none">
<path fill-rule="evenodd" clip-rule="evenodd" d="M16.6956 15.3101L22 20.6145L20.6145 22L15.3101 16.6956L16.6956 15.3101Z" fill="#4D6383"/>
<path fill-rule="evenodd" clip-rule="evenodd" d="M10.8174 3.95942C7.02983 3.95942 3.95942 7.02983 3.95942 10.8174C3.95942 14.6049 7.02983 17.6754 10.8174 17.6754C14.6049 17.6754 17.6754 14.6049 17.6754 10.8174C17.6754 7.02983 14.6049 3.95942 10.8174 3.95942ZM2 10.8174C2 5.94768 5.94768 2 10.8174 2C15.6871 2 19.6348 5.94768 19.6348 10.8174C19.6348 15.6871 15.6871 19.6348 10.8174 19.6348C5.94768 19.6348 2 15.6871 2 10.8174Z" fill="#4D6383"/>
</svg>