<svg xmlns="http://www.w3.org/2000/svg" width="24" height="24" viewBox="0 0 24 24" fill="black">
  <path fill-rule="evenodd" clip-rule="evenodd" d="M4 19.5C4 16.2781 6.61143 13.6667 9.83333 13.6667H14.8333C18.0552 13.6667 20.6667 16.2781 20.6667 19.5V20.3333C20.6667 20.6957 20.4325 21.0166 20.0873 21.127L19.8333 20.3333C20.0873 21.127 20.0875 21.1269 20.0873 21.127L20.0851 21.1277L20.082 21.1287L20.0729 21.1316L20.0432 21.1406C20.0183 21.1481 19.9832 21.1584 19.9381 21.1712C19.8479 21.1966 19.7174 21.2317 19.5472 21.2732C19.2068 21.3561 18.7077 21.4645 18.0549 21.5722C16.7491 21.7876 14.8287 22 12.3333 22C9.83796 22 7.91758 21.7876 6.61177 21.5722C5.95893 21.4645 5.45985 21.3561 5.11946 21.2732C4.94927 21.2317 4.81875 21.1966 4.72853 21.1712C4.68342 21.1584 4.64838 21.1481 4.62349 21.1406L4.59378 21.1316L4.58465 21.1287L4.58152 21.1277L4.58032 21.1273C4.58009 21.1273 4.57935 21.127 4.83333 20.3333L4.57935 21.127C4.2342 21.0166 4 20.6957 4 20.3333V19.5ZM5.66667 19.6901C5.96184 19.7585 6.36826 19.8429 6.88302 19.9278C8.10325 20.1291 9.93288 20.3333 12.3333 20.3333C14.7338 20.3333 16.5634 20.1291 17.7836 19.9278C18.2984 19.8429 18.7048 19.7585 19 19.6901V19.5C19 17.1986 17.1348 15.3333 14.8333 15.3333H9.83333C7.5319 15.3333 5.66667 17.1986 5.66667 19.5V19.6901Z" fill="black" fill-opacity="0.7" style="mix-blend-mode:multiply"/>
  <path fill-rule="evenodd" clip-rule="evenodd" d="M12.3333 3.66667C10.4927 3.66667 9 5.1594 9 7C9 7.94315 9.39039 9.01575 10.0431 9.84885C10.6984 10.6852 11.5217 11.1667 12.3333 11.1667C13.145 11.1667 13.9683 10.6852 14.6235 9.84885C15.2763 9.01575 15.6667 7.94315 15.6667 7C15.6667 5.1594 14.1739 3.66667 12.3333 3.66667ZM7.33333 7C7.33333 4.23893 9.57226 2 12.3333 2C15.0944 2 17.3333 4.23893 17.3333 7C17.3333 8.35769 16.7908 9.78509 15.9354 10.8768C15.0826 11.9653 13.8225 12.8333 12.3333 12.8333C10.8441 12.8333 9.58409 11.9653 8.73123 10.8768C7.87586 9.78509 7.33333 8.35769 7.33333 7Z" fill="black" fill-opacity="0.7" style="mix-blend-mode:multiply"/>
</svg>